<mxfile host="Electron" modified="2025-03-15T13:13:35.270Z" agent="Mozilla/5.0 (Windows NT 10.0; Win64; x64) AppleWebKit/537.36 (KHTML, like Gecko) draw.io/21.6.8 Chrome/114.0.5735.289 Electron/25.5.0 Safari/537.36" etag="jgt8tOBoUfPIdBPSp5uh" version="21.6.8" type="device">
  <diagram name="Page-1" id="2opxLaow2kM9Bb_5w4BE">
    <mxGraphModel dx="2924" dy="1197" grid="1" gridSize="10" guides="1" tooltips="1" connect="1" arrows="1" fold="1" page="1" pageScale="1" pageWidth="850" pageHeight="1100" math="0" shadow="0">
      <root>
        <mxCell id="0" />
        <mxCell id="1" parent="0" />
        <mxCell id="H1tO_FH9vnIzFI_Jb-GQ-24" value="" style="rounded=0;whiteSpace=wrap;html=1;" vertex="1" parent="1">
          <mxGeometry x="-10" y="20" width="1710" height="960" as="geometry" />
        </mxCell>
        <mxCell id="H1tO_FH9vnIzFI_Jb-GQ-1" value="👤 User Question" style="shape=cylinder3;boundedLbl=1;backgroundOutline=1;size=10;strokeWidth=2;whiteSpace=wrap;fillColor=#d80073;fontColor=#ffffff;strokeColor=#A50040;" vertex="1" parent="1">
          <mxGeometry x="178" y="364.5" width="140" height="121.5" as="geometry" />
        </mxCell>
        <mxCell id="H1tO_FH9vnIzFI_Jb-GQ-17" style="edgeStyle=orthogonalEdgeStyle;rounded=0;orthogonalLoop=1;jettySize=auto;html=1;entryX=0;entryY=0.5;entryDx=0;entryDy=0;entryPerimeter=0;" edge="1" parent="1" source="H1tO_FH9vnIzFI_Jb-GQ-2" target="H1tO_FH9vnIzFI_Jb-GQ-4">
          <mxGeometry relative="1" as="geometry" />
        </mxCell>
        <mxCell id="H1tO_FH9vnIzFI_Jb-GQ-22" style="edgeStyle=orthogonalEdgeStyle;rounded=0;orthogonalLoop=1;jettySize=auto;html=1;entryX=0;entryY=0.5;entryDx=0;entryDy=0;entryPerimeter=0;exitX=0.5;exitY=0;exitDx=0;exitDy=0;" edge="1" parent="1" source="H1tO_FH9vnIzFI_Jb-GQ-2" target="H1tO_FH9vnIzFI_Jb-GQ-3">
          <mxGeometry relative="1" as="geometry">
            <Array as="points">
              <mxPoint x="490" y="389" />
              <mxPoint x="490" y="280" />
              <mxPoint x="689" y="280" />
              <mxPoint x="689" y="279" />
            </Array>
          </mxGeometry>
        </mxCell>
        <mxCell id="H1tO_FH9vnIzFI_Jb-GQ-23" style="edgeStyle=orthogonalEdgeStyle;rounded=0;orthogonalLoop=1;jettySize=auto;html=1;entryX=-0.003;entryY=0.591;entryDx=0;entryDy=0;entryPerimeter=0;" edge="1" parent="1" source="H1tO_FH9vnIzFI_Jb-GQ-2" target="H1tO_FH9vnIzFI_Jb-GQ-5">
          <mxGeometry relative="1" as="geometry">
            <Array as="points">
              <mxPoint x="489" y="586" />
            </Array>
          </mxGeometry>
        </mxCell>
        <mxCell id="H1tO_FH9vnIzFI_Jb-GQ-2" value="🦸♂️ AI Platform Assistant" style="shape=hexagon;perimeter=hexagonPerimeter2;fixedSize=1;strokeWidth=2;whiteSpace=wrap;fillColor=#1ba1e2;fontColor=#ffffff;strokeColor=#006EAF;" vertex="1" parent="1">
          <mxGeometry x="370" y="388.5" width="238" height="71.5" as="geometry" />
        </mxCell>
        <mxCell id="H1tO_FH9vnIzFI_Jb-GQ-21" style="edgeStyle=orthogonalEdgeStyle;rounded=0;orthogonalLoop=1;jettySize=auto;html=1;entryX=0.5;entryY=0;entryDx=0;entryDy=0;entryPerimeter=0;" edge="1" parent="1" source="H1tO_FH9vnIzFI_Jb-GQ-3" target="H1tO_FH9vnIzFI_Jb-GQ-6">
          <mxGeometry relative="1" as="geometry" />
        </mxCell>
        <mxCell id="H1tO_FH9vnIzFI_Jb-GQ-3" value="📚 Knowledge Magic" style="shape=cylinder3;boundedLbl=1;backgroundOutline=1;size=10;strokeWidth=2;whiteSpace=wrap;fillColor=#6d8764;fontColor=#ffffff;strokeColor=#3A5431;" vertex="1" parent="1">
          <mxGeometry x="793.25" y="219" width="170" height="120" as="geometry" />
        </mxCell>
        <mxCell id="H1tO_FH9vnIzFI_Jb-GQ-4" value="⚙️ Operations Magic" style="shape=cylinder3;boundedLbl=1;backgroundOutline=1;size=10;strokeWidth=2;whiteSpace=wrap;fillColor=#e3c800;fontColor=#000000;strokeColor=#B09500;" vertex="1" parent="1">
          <mxGeometry x="796.5" y="365" width="163.5" height="120" as="geometry" />
        </mxCell>
        <mxCell id="H1tO_FH9vnIzFI_Jb-GQ-20" style="edgeStyle=orthogonalEdgeStyle;rounded=0;orthogonalLoop=1;jettySize=auto;html=1;entryX=0.5;entryY=1;entryDx=0;entryDy=0;entryPerimeter=0;" edge="1" parent="1" source="H1tO_FH9vnIzFI_Jb-GQ-5" target="H1tO_FH9vnIzFI_Jb-GQ-6">
          <mxGeometry relative="1" as="geometry" />
        </mxCell>
        <mxCell id="H1tO_FH9vnIzFI_Jb-GQ-5" value="💰 Cost Magic" style="shape=cylinder3;boundedLbl=1;backgroundOutline=1;size=10;strokeWidth=2;whiteSpace=wrap;fillColor=#76608a;fontColor=#ffffff;strokeColor=#432D57;" vertex="1" parent="1">
          <mxGeometry x="796.5" y="511" width="167" height="127" as="geometry" />
        </mxCell>
        <mxCell id="H1tO_FH9vnIzFI_Jb-GQ-6" value="✨ Answer" style="shape=cylinder3;boundedLbl=1;backgroundOutline=1;size=10;strokeWidth=2;whiteSpace=wrap;fillColor=#d80073;fontColor=#ffffff;strokeColor=#A50040;" vertex="1" parent="1">
          <mxGeometry x="1118" y="364" width="120" height="120" as="geometry" />
        </mxCell>
        <mxCell id="H1tO_FH9vnIzFI_Jb-GQ-7" value="🎉 Happy User!" style="shape=cylinder3;boundedLbl=1;backgroundOutline=1;size=10;strokeWidth=2;whiteSpace=wrap;fillColor=#1ba1e2;fontColor=#ffffff;strokeColor=#006EAF;" vertex="1" parent="1">
          <mxGeometry x="1318" y="374" width="140" height="100" as="geometry" />
        </mxCell>
        <mxCell id="H1tO_FH9vnIzFI_Jb-GQ-8" value="" style="curved=1;startArrow=none;endArrow=block;exitX=0.9975792253521126;exitY=0.49829591287148967;entryX=-0.001569634703196347;entryY=0.4962911044850069;rounded=0;" edge="1" parent="1" source="H1tO_FH9vnIzFI_Jb-GQ-1" target="H1tO_FH9vnIzFI_Jb-GQ-2">
          <mxGeometry relative="1" as="geometry">
            <Array as="points" />
          </mxGeometry>
        </mxCell>
        <mxCell id="H1tO_FH9vnIzFI_Jb-GQ-13" value="" style="curved=1;startArrow=none;endArrow=block;exitX=0.9954071969696969;exitY=0.49186879938299005;entryX=0.0026041666666666665;entryY=0.49808935685591266;rounded=0;" edge="1" parent="1" source="H1tO_FH9vnIzFI_Jb-GQ-4" target="H1tO_FH9vnIzFI_Jb-GQ-6">
          <mxGeometry relative="1" as="geometry">
            <Array as="points" />
          </mxGeometry>
        </mxCell>
        <mxCell id="H1tO_FH9vnIzFI_Jb-GQ-15" value="" style="curved=1;startArrow=none;endArrow=block;exitX=1.0047043010752688;exitY=0.49808935685591266;entryX=0.003391472868217054;entryY=0.4982485771179199;rounded=0;" edge="1" parent="1" source="H1tO_FH9vnIzFI_Jb-GQ-6" target="H1tO_FH9vnIzFI_Jb-GQ-7">
          <mxGeometry relative="1" as="geometry">
            <Array as="points" />
          </mxGeometry>
        </mxCell>
      </root>
    </mxGraphModel>
  </diagram>
</mxfile>
